<svg width="314" height="205" viewBox="0 0 314 205" fill="none" xmlns="http://www.w3.org/2000/svg">
    <g style="mix-blend-mode:soft-light" opacity="0.5">
        <path
            d="M-14 143.07H92.3C92.3 143.07 84.7 119.77 71.9 123.17C59.1 126.47 59.6 129.37 59.6 129.37C59.6 129.37 55.8 109.47 38.7 112.27C21.6 115.07 17.8 128.87 17.8 128.87C17.8 128.87 6.90001 124.57 2.10001 128.87C-2.59999 133.17 -1.69998 135.47 -1.69998 135.47C-1.69998 135.47 -12.1 130.77 -14 143.07Z"
            fill="white" />
    </g>
    <g style="mix-blend-mode:soft-light" opacity="0.8">
        <path
            d="M267 100.216C265.8 96.8161 263.1 90.9161 258.9 89.5161C252.9 87.5161 244 94.1161 244 94.1161C244 94.1161 239.7 78.6161 225.3 78.0161C210.9 77.4161 213.5 93.8161 213.5 93.8161C213.5 93.8161 209.8 92.7161 202.3 90.4161C194.8 88.1161 192.2 95.0161 192.2 95.0161C187.5 93.3161 185.6 97.8161 185 100.216H267Z"
            fill="white" />
    </g>
    <path
        d="M43.7 0C43.7 0 43.5 2.6 41 2.9C43.5 3.2 43.7 5.8 43.7 5.8C43.7 5.8 43.9 3.2 46.4 2.9C43.9 2.7 43.7 0 43.7 0Z"
        fill="#FFD08A" />
    <path
        d="M177.7 41C177.7 41 177.5 43.6 175 43.9C177.5 44.2 177.7 46.8 177.7 46.8C177.7 46.8 177.9 44.2 180.4 43.9C177.9 43.7 177.7 41 177.7 41Z"
        fill="#FFD08A" />
    <path
        d="M79.7 31C79.7 31 79.5 33.6 77 33.9C79.5 34.2 79.7 36.8 79.7 36.8C79.7 36.8 79.9 34.2 82.4 33.9C79.9 33.7 79.7 31 79.7 31Z"
        fill="#FFD08A" />
    <path
        d="M299.7 100C299.7 100 299.5 102.6 297 102.9C299.5 103.2 299.7 105.8 299.7 105.8C299.7 105.8 299.9 103.2 302.4 102.9C299.8 102.7 299.7 100 299.7 100Z"
        fill="#FFD08A" />
    <path
        d="M183.3 159.6C183.3 159.6 183.1 162.2 180.6 162.5C183.1 162.8 183.3 165.4 183.3 165.4C183.3 165.4 183.5 162.8 186 162.5C183.4 162.3 183.3 159.6 183.3 159.6Z"
        fill="#FFD08A" />
    <path
        d="M139.1 70C139.1 70 138.6 77 132 77.6C138.6 78.3 139.1 85.2 139.1 85.2C139.1 85.2 139.6 78.2 146.2 77.6C139.6 77 139.1 70 139.1 70Z"
        fill="#FFD08A" />
    <path
        d="M15.1 58.7C15.1 58.7 14.6 65.7 8 66.3C14.6 67 15.1 73.9 15.1 73.9C15.1 73.9 15.6 66.9 22.2 66.3C15.6 65.7 15.1 58.7 15.1 58.7Z"
        fill="#FFD08A" />
    <path
        d="M132.2 0C132.2 0 131.8 5.1 127 5.6C131.8 6.1 132.2 11.2 132.2 11.2C132.2 11.2 132.6 6.1 137.4 5.6C132.6 5 132.2 0 132.2 0Z"
        fill="#FFD08A" />
    <path
        d="M58.6 95C58.6 95 58.3 99.5 54 100C58.3 100.4 58.6 105 58.6 105C58.6 105 58.9 100.5 63.2 100C59 99.5 58.6 95 58.6 95Z"
        fill="#FFD08A" />
    <path
        d="M99.5 194.9C99.5 194.9 99.2 199.4 94.9 199.9C99.2 200.3 99.5 204.9 99.5 204.9C99.5 204.9 99.8 200.4 104.1 199.9C99.8 199.4 99.5 194.9 99.5 194.9Z"
        fill="#FFD08A" />
    <g style="mix-blend-mode:soft-light" opacity="0.5">
        <path
            d="M237.8 168.5H344.1C344.1 168.5 336.5 145.2 323.7 148.6C310.9 151.9 311.4 154.8 311.4 154.8C311.4 154.8 307.6 134.9 290.5 137.7C273.4 140.5 269.6 154.3 269.6 154.3C269.6 154.3 258.7 150 253.9 154.3C249.2 158.6 250.1 160.9 250.1 160.9C250.1 160.9 239.7 156.2 237.8 168.5Z"
            fill="white" />
    </g>
</svg>
